<svg id="visual" viewBox="0 0 900 600" width="900" height="600" xmlns="http://www.w3.org/2000/svg" xmlns:xlink="http://www.w3.org/1999/xlink" version="1.1"><rect x="0" y="0" width="900" height="600" fill="#f6beb4"></rect><path d="M0 410L21.5 409.7C43 409.3 86 408.7 128.8 378.2C171.7 347.7 214.3 287.3 257.2 261.3C300 235.3 343 243.7 385.8 260.8C428.7 278 471.3 304 514.2 303.5C557 303 600 276 642.8 267.7C685.7 259.3 728.3 269.7 771.2 279.2C814 288.7 857 297.3 878.5 301.7L900 306L900 601L878.5 601C857 601 814 601 771.2 601C728.3 601 685.7 601 642.8 601C600 601 557 601 514.2 601C471.3 601 428.7 601 385.8 601C343 601 300 601 257.2 601C214.3 601 171.7 601 128.8 601C86 601 43 601 21.5 601L0 601Z" fill="#250340" stroke-linecap="round" stroke-linejoin="miter"></path></svg>